<?xml version="1.0" encoding="utf-8"?>
<!-- Generator: Adobe Illustrator 16.0.0, SVG Export Plug-In . SVG Version: 6.00 Build 0)  -->
<!DOCTYPE svg PUBLIC "-//W3C//DTD SVG 1.1//EN" "http://www.w3.org/Graphics/SVG/1.1/DTD/svg11.dtd">
<svg version="1.1" id="Layer_1" xmlns="http://www.w3.org/2000/svg" xmlns:xlink="http://www.w3.org/1999/xlink" x="0px" y="0px"
	 width="150px" height="75px" viewBox="0 37.5 150 75" enable-background="new 0 37.5 150 75" xml:space="preserve">
<g id="d79dfe24-8ff7-4442-b711-ead21159b184" transform="matrix(2.9949146056960703,0,0,2.9949146056960703,19.17161741025816,172.83650495706425)">
	<path fill="#FFFFFF" d="M1.039-24.04c-0.525-1.59-1.51-3.8-1.95-4.27c-0.05-0.04-0.14-0.04-0.19,0c-0.44,0.47-1.43,2.68-1.955,4.27
		c-0.095,0.29,0.85,0.29,0.935,0c0.105-0.35,0.21-0.68,0.315-1.005h1.6c0.105,0.325,0.21,0.655,0.315,1.005
		C0.194-23.76,1.144-23.75,1.039-24.04z M-1.571-25.74c0.16-0.45,0.345-0.895,0.57-1.365c0.215,0.47,0.395,0.915,0.56,1.365H-1.571z
		 M4.989-24.57c-0.065,0.025-0.11,0.035-0.16,0.035c-0.14,0-0.21-0.1-0.21-0.3v-0.26v-0.895c0-0.735-0.43-1.18-1.13-1.18
		c-0.465,0-0.9,0.17-1.245,0.505l-0.11-0.355c-0.07-0.19-0.685-0.21-0.685,0.055v2.925c0,0.28,0.815,0.28,0.815,0v-1.93
		c0.305-0.345,0.605-0.475,0.885-0.475c0.42,0,0.65,0.22,0.65,0.74v0.45v0.545c0,0.68,0.28,0.91,0.645,0.91
		c0.175,0,0.355-0.05,0.545-0.12C5.284-24.045,5.269-24.71,4.989-24.57z M6.114-27.7c0.28,0,0.48-0.195,0.48-0.51
		c0-0.295-0.2-0.5-0.48-0.5c-0.29,0-0.48,0.205-0.48,0.5C5.634-27.895,5.824-27.7,6.114-27.7z M6.689-24.6
		c-0.02,0.01-0.04,0.015-0.06,0.015c-0.07,0-0.105-0.055-0.105-0.145v-2.345c0-0.33-0.83,0.01-0.83,0.35v2.195
		c0,0.49,0.24,0.695,0.555,0.695c0.14,0,0.295-0.035,0.44-0.105C6.984-24.09,6.984-24.725,6.689-24.6z M12.934-24.57
		c-0.065,0.025-0.11,0.035-0.16,0.035c-0.14,0-0.21-0.1-0.21-0.3v-0.205v-0.95c0-0.735-0.405-1.18-1.07-1.18
		c-0.45,0-0.865,0.19-1.17,0.575c-0.17-0.365-0.5-0.575-0.955-0.575c-0.41,0-0.79,0.165-1.09,0.485l-0.11-0.335
		c-0.07-0.195-0.69-0.22-0.69,0.05v2.93c0,0.28,0.82,0.28,0.82,0v-1.95c0.255-0.33,0.505-0.455,0.73-0.455
		c0.39,0,0.585,0.23,0.585,0.74v1.665c0,0.28,0.82,0.28,0.82,0v-1.95v-0.015c0.245-0.325,0.49-0.44,0.715-0.44
		c0.385,0,0.595,0.23,0.595,0.74v0.45v0.545c0,0.685,0.285,0.91,0.65,0.91c0.17,0,0.35-0.05,0.54-0.12
		C13.229-24.045,13.214-24.71,12.934-24.57z M16.644-25.74c0-0.925-0.51-1.43-1.535-1.43c-1.06,0-1.615,0.645-1.615,1.645
		c0,1.19,0.86,1.69,1.72,1.69c0.395,0,0.765-0.105,1.085-0.31c0.2-0.125,0.2-0.7-0.06-0.585c-0.36,0.16-0.665,0.25-0.96,0.25
		c-0.49,0-0.945-0.24-0.96-0.735c0.19,0.03,0.4,0.04,0.59,0.04C15.789-25.175,16.644-25.41,16.644-25.74z M14.334-25.805
		c0.005-0.535,0.365-0.74,0.81-0.74c0.49,0,0.75,0.23,0.75,0.575c0,0.105-0.455,0.195-1.035,0.195
		C14.689-25.775,14.514-25.78,14.334-25.805z M20.824-23.83c1.3,0,2.07-0.84,2.07-2.255c0-1.42-0.77-2.26-2.07-2.26
		c-1.305,0-2.075,0.84-2.075,2.26C18.749-24.67,19.519-23.83,20.824-23.83z M20.824-24.55c-0.77,0-1.21-0.565-1.21-1.535
		c0-0.97,0.44-1.54,1.21-1.54c0.76,0,1.21,0.57,1.21,1.54C22.034-25.115,21.584-24.55,20.824-24.55z M25.499-27.14
		c-0.545,0.015-0.95,0.225-1.22,0.555l-0.105-0.43c-0.045-0.195-0.71-0.2-0.71,0.065v2.91c0,0.28,0.825,0.28,0.825,0v-1.845
		c0.32-0.345,0.65-0.45,1.055-0.47C25.589-26.365,25.759-27.145,25.499-27.14z M28.074-27.17c-0.425,0-0.82,0.135-1.105,0.375v-1.73
		c0-0.33-0.82-0.03-0.82,0.3v4.2c0,0.265,0.605,0.245,0.68,0.05l0.105-0.28c0.285,0.26,0.695,0.42,1.14,0.42
		c0.75,0,1.245-0.66,1.245-1.675C29.319-26.505,28.824-27.17,28.074-27.17z M27.719-24.55c-0.275,0-0.535-0.12-0.75-0.345v-1.23
		c0.225-0.21,0.475-0.32,0.75-0.32c0.515-0.01,0.785,0.32,0.785,0.935C28.504-24.87,28.234-24.545,27.719-24.55z M30.404-27.7
		c0.28,0,0.48-0.195,0.48-0.51c0-0.295-0.2-0.5-0.48-0.5c-0.29,0-0.48,0.205-0.48,0.5C29.925-27.895,30.114-27.7,30.404-27.7z
		 M30.979-24.6c-0.02,0.01-0.04,0.015-0.06,0.015c-0.07,0-0.105-0.055-0.105-0.145v-2.345c0-0.33-0.83,0.01-0.83,0.35v2.195
		c0,0.49,0.24,0.695,0.555,0.695c0.14,0,0.295-0.035,0.44-0.105C31.274-24.09,31.274-24.725,30.979-24.6z M33.949-24.725
		c-0.66,0.38-1.05,0.25-1.05-0.405v-1.165h1.1c0.28,0,0.28-0.72,0-0.72h-1.1v-0.825c0-0.265-0.65-0.265-0.685-0.065l-0.14,0.89
		h-0.43c-0.28,0-0.28,0.72,0,0.72h0.43v1.135c0,1.28,0.98,1.595,1.875,1.1C34.184-24.205,34.179-24.85,33.949-24.725z M37.694-25.74
		c0-0.925-0.51-1.43-1.535-1.43c-1.065,0-1.615,0.645-1.615,1.645c0,1.19,0.86,1.69,1.72,1.69c0.395,0,0.765-0.105,1.085-0.31
		c0.195-0.125,0.195-0.7-0.06-0.585c-0.36,0.16-0.665,0.25-0.96,0.25c-0.49,0-0.945-0.24-0.96-0.735c0.19,0.03,0.4,0.04,0.59,0.04
		C36.839-25.175,37.694-25.41,37.694-25.74z M35.384-25.805c0.005-0.535,0.365-0.74,0.81-0.74c0.49,0,0.75,0.23,0.75,0.575
		c0,0.105-0.455,0.195-1.035,0.195C35.739-25.775,35.564-25.78,35.384-25.805z M40.214-27.14c-0.545,0.015-0.955,0.225-1.22,0.555
		l-0.105-0.43c-0.05-0.195-0.715-0.2-0.715,0.065v2.91c0,0.28,0.83,0.28,0.83,0v-1.845c0.32-0.345,0.65-0.45,1.055-0.47
		C40.304-26.365,40.474-27.145,40.214-27.14z"/>
</g>
<path fill="#D61818" d="M99.553,48.972c-0.227-0.392-0.821-0.568-1.764-0.523c-2.611,0.128-7.719,1.937-14.107,4.996
	c0.003,0.057,0.006,0.113,0.009,0.17c-2.29-2.127-5.299-3.311-8.425-3.315c-6.851,0-12.405,5.554-12.405,12.405
	c0.003,0.848,0.093,1.693,0.268,2.522c-8.586,5.785-13.564,10.533-12.682,12.097c1.037,1.785,9.542-1.047,20.665-6.878
	c-0.273-0.075-0.506-0.255-0.646-0.502c-0.093-0.176-0.134-0.375-0.119-0.574c-9.985,5.301-17.375,8.083-18.112,6.82
	c-0.607-1.084,3.724-4.895,11.185-9.841c0.512,1.657,1.367,3.188,2.507,4.494c0.734-0.272,1.452-0.588,2.148-0.946
	c0.452-0.23,0.98-0.51,1.543-0.812c-2.437-1.918-3.86-4.846-3.865-7.947c0.001-5.595,4.537-10.13,10.131-10.131
	c4.982,0.003,9.225,3.628,10.004,8.549c0.4-0.268,0.785-0.529,1.127-0.776c-0.558-1.659-1.46-3.182-2.647-4.467
	c6.136-3.017,10.753-4.75,12.622-4.741c0.437,0.004,0.715,0.104,0.83,0.298c0.678,1.199-4.699,5.723-13.461,11.325
	c0.227,0.093,0.415,0.246,0.533,0.461c0.105,0.202,0.143,0.431,0.108,0.655C94.656,56.02,100.508,50.656,99.553,48.972z"/>
<path fill="#D61818" d="M75.409,71.246c-1.066-0.05-2.117-0.269-3.115-0.647l-0.75,0.389c-1.145,0.589-2.383,1.208-3.587,1.722
	c2.12,1.553,4.679,2.393,7.307,2.398c6.851,0,12.404-5.553,12.404-12.403c-0.004-0.418-0.028-0.836-0.074-1.252
	c-0.388,0.272-0.956,0.661-1.694,1.148c-0.726,4.974-4.987,8.664-10.015,8.67C75.771,71.267,75.409,71.246,75.409,71.246z"/>
<polygon fill="#FFFFFF" points="55.203,64.445 53.336,63.395 51.414,64.336 51.836,62.237 50.346,60.699 52.473,60.452 
	53.476,58.561 54.368,60.506 56.477,60.875 54.901,62.325 ">
	<animate
		attributeName="opacity"
		values="1; .7; .8; .5; 1"
		dur="1.2s"
		begin="0s"
		repeatCount="indefinite"
		/>
	</polygon>
<polygon fill="#FFFFFF" points="46.793,56.887 45.94,56.406 45.061,56.837 45.254,55.877 44.572,55.173 45.545,55.061 
	46.003,54.195 46.412,55.085 47.376,55.254 46.656,55.917 ">
	<animate
		attributeName="opacity"
		values="1; .6; .7; .4; 1"
		dur="1.5s"
		begin=".2s"
		repeatCount="indefinite"
		/>
	</polygon>
<polygon fill="#FFFFFF" points="53.434,53.791 52.871,53.685 52.465,54.089 52.392,53.521 51.881,53.26 52.399,53.014 52.49,52.449 
	52.884,52.865 53.45,52.776 53.175,53.279 ">
	<animate
		attributeName="opacity"
		values="1; .7; .8; .5; 1"
		dur="1.3s"
		begin="0s"
		repeatCount="indefinite"
		/>
	</polygon>
<polyline fill="#FFFFFF" points="93.575,73.191 94.229,73.104 94.536,72.436 94.811,73.124 95.457,73.254 94.974,73.767 
	95.065,74.517 94.493,74.146 93.903,74.479 94.032,73.736 93.575,73.191 ">
	<animate
		attributeName="opacity"
		values="1; .3; .7; .4; 1"
		dur="1.6s"
		begin=".1s"
		repeatCount="indefinite"
		/>
	</polyline>
<polygon fill="#FFFFFF" points="101.911,65.271 101.533,65.189 101.261,65.502 101.211,65.063 100.869,64.86 101.216,64.67 
	101.277,64.233 101.542,64.555 101.921,64.487 101.737,64.875 ">
	<animate
		attributeName="opacity"
		values="1; .6; .7; .4; 1"
		dur="1.5s"
		begin=".4s"
		repeatCount="indefinite"
		/>
	</polygon>
<g>
	<g id="XMLID_1_">
		<g>
			<path fill="#FFFFFF" d="M77.499,67.941c0.443-0.06,0.965-0.166,1.519-0.359c-0.129,0.537-0.589,1.142-1.229,1.529
				c-0.246,0.146-0.518,0.264-0.808,0.332C77.45,69.067,77.681,68.602,77.499,67.941z"/>
			<path fill="#FFFFFF" d="M78.865,65.066c-0.092-0.152-0.289-0.202-0.441-0.109c-0.152,0.092-0.201,0.289-0.109,0.442
				c0.092,0.152,0.29,0.202,0.441,0.109C78.911,65.417,78.961,65.22,78.865,65.066z M80.308,64.951
				c0.306-0.184,0.403-0.579,0.22-0.884c-0.185-0.305-0.582-0.403-0.887-0.219c-0.306,0.184-0.404,0.579-0.22,0.884
				C79.604,65.037,80.003,65.135,80.308,64.951z M82.094,63.487c-0.66,2.667-3.029,3.651-4.882,3.837L76.1,65.476
				c0.967-1.514,3.009-3.19,5.704-2.523c0.125,0.031,0.254,0.066,0.38,0.107c-0.024,0.14-0.053,0.277-0.085,0.408L82.094,63.487z"/>
			<path fill="#FFFFFF" d="M76.708,63.757c-0.399,0.367-0.739,0.771-1.022,1.177c-0.497-0.466-1.02-0.479-1.57-0.243
				c0.198-0.224,0.427-0.41,0.67-0.559C75.428,63.746,76.172,63.625,76.708,63.757z"/>
			<path fill="#D61818" d="M73.903,68.059c0.399,0.092,1.297,0.204,2.473-0.875l0.185,0.312c-0.763,1.079-2.299,1.496-3.743,1.215
				c0.402-1.327,1.507-2.514,2.869-2.666l0.188,0.313C74.303,66.888,74.002,67.675,73.903,68.059z"/>
		</g>
		<g>
		</g>
	</g>
</g>
</svg>
