<?xml version="1.0" encoding="utf-8"?>
<!-- Generator: Adobe Illustrator 16.0.0, SVG Export Plug-In . SVG Version: 6.00 Build 0)  -->
<!DOCTYPE svg PUBLIC "-//W3C//DTD SVG 1.1//EN" "http://www.w3.org/Graphics/SVG/1.1/DTD/svg11.dtd">
<svg version="1.1" id="Layer_1" xmlns="http://www.w3.org/2000/svg" xmlns:xlink="http://www.w3.org/1999/xlink" x="0px" y="0px"
	 width="150px" height="150px" viewBox="0 0 150 150" enable-background="new 0 0 150 150" xml:space="preserve">
<g id="_x30_4529775-3675-49ae-8f61-b302f3301c4e" transform="matrix(8.424426209500627,0,0,8.424426209500627,40.0001152873178,84.38531038469668)">
	<path fill="#DC3546" d="M4.263,1.031C3.981,1.017,3.702,0.959,3.438,0.859L3.239,0.962c-0.303,0.156-0.631,0.32-0.95,0.456
		c0.561,0.411,1.239,0.634,1.935,0.635c1.814,0,3.285-1.47,3.285-3.284c-0.001-0.111-0.008-0.221-0.02-0.332v0
		C7.387-1.491,7.236-1.388,7.041-1.259C6.849,0.058,5.72,1.035,4.389,1.037c-0.03-0.001-0.06-0.003-0.09-0.005"/>
	<path fill="#DC3546" d="M10.656-4.868c-0.06-0.104-0.217-0.15-0.467-0.139C9.498-4.972,8.145-4.493,6.454-3.683
		c0.001,0.015,0.002,0.03,0.002,0.045C5.849-4.202,5.053-4.515,4.225-4.516c-1.814,0-3.285,1.471-3.285,3.285
		c0.001,0.225,0.025,0.448,0.071,0.668c-2.274,1.532-3.592,2.79-3.359,3.204c0.275,0.473,2.527-0.277,5.473-1.822
		c-0.073-0.02-0.134-0.068-0.171-0.133C2.929,0.639,2.918,0.586,2.922,0.534C0.278,1.937-1.679,2.674-1.874,2.34
		c-0.161-0.287,0.986-1.296,2.962-2.606c0.136,0.439,0.362,0.844,0.664,1.19c0.195-0.072,0.385-0.156,0.569-0.25
		C2.44,0.612,2.58,0.538,2.729,0.458C2.084-0.05,1.707-0.825,1.706-1.646c0-1.482,1.201-2.683,2.683-2.683
		c1.32,0.001,2.443,0.961,2.649,2.264c0.106-0.071,0.208-0.14,0.298-0.206C7.189-2.71,6.95-3.113,6.635-3.454
		C8.26-4.253,9.483-4.712,9.978-4.709c0.116,0.001,0.189,0.027,0.22,0.079c0.179,0.317-1.245,1.515-3.565,2.999
		c0.06,0.024,0.11,0.065,0.141,0.122c0.028,0.053,0.038,0.114,0.029,0.173C9.36-3.002,10.909-4.422,10.656-4.868z"/>
	<path fill="#FFFFFF" d="M5.772-1.494L5.772-1.494c-0.069-0.018-0.139-0.025-0.21-0.021h0C5.273-1.5,5.024-1.311,4.931-1.038
		L4.269-0.827C4.26-0.825,4.254-0.815,4.256-0.805L4.26-0.792L2.916-0.393c0,0.001,0.001,0.001,0.001,0.002l1.325-0.318
		c0.003-0.001,0.007,0,0.01,0l0.029-0.008l0.001,0.002c0.003,0.01,0.013,0.015,0.022,0.013l0.589-0.145
		c-0.006,0.115,0.016,0.23,0.064,0.334L4.751-0.369C4.742-0.364,4.74-0.353,4.744-0.344l0.007,0.012L3.605,0.42
		C3.605,0.42,3.607,0.421,3.606,0.422l1.178-0.686C4.785-0.265,4.788-0.266,4.79-0.266l0.002,0.003
		c0.005,0.009,0.016,0.011,0.025,0.006l0.227-0.116c0.077,0.098,0.179,0.174,0.295,0.22L4.922,0.302
		c-0.007,0.007-0.007,0.018,0,0.026c0,0,0,0,0,0.001l0.006,0.006c0,0-0.622,0.671-0.617,0.673C4.317,1.01,4.968,0.401,4.968,0.401
		c0.003-0.002,0.005-0.004,0.008-0.005l0.008-0.007L4.99,0.394c0.007,0.007,0.019,0.007,0.026,0l0.517-0.501
		c0.346,0.032,0.665-0.191,0.751-0.528C6.379-1.014,6.151-1.398,5.772-1.494z M6.195-0.774c-0.056,0.218-0.252,0.37-0.477,0.369
		C5.812-0.46,5.879-0.551,5.906-0.656C5.961-0.875,5.829-1.098,5.61-1.153c-0.117-0.03-0.242-0.006-0.34,0.065
		c0.08-0.186,0.266-0.304,0.468-0.296C5.772-1.383,5.807-1.378,5.84-1.37C6.102-1.303,6.262-1.037,6.195-0.774z"/>
</g>
<polygon fill="#FFFFFF" points="40.048,70.047 35.849,67.683 31.523,69.802 32.472,65.077 29.12,61.616 33.906,61.061 
	36.162,56.804 38.17,61.183 42.916,62.012 39.371,65.276 "/>
<polygon fill="#FFFFFF" points="21.125,53.037 19.204,51.956 17.226,52.925 17.66,50.765 16.126,49.182 18.316,48.928 
	19.347,46.981 20.267,48.984 22.437,49.363 20.815,50.855 "/>
<polygon fill="#FFFFFF" points="104.625,107.809 102.704,106.728 100.727,107.697 101.16,105.537 99.627,103.953 101.816,103.699 
	102.847,101.752 103.767,103.756 105.937,104.135 104.314,105.627 "/>
<polygon fill="#FFFFFF" points="36.068,46.07 34.802,45.833 33.889,46.742 33.723,45.463 32.574,44.875 33.739,44.323 33.943,43.05 
	34.83,43.986 36.104,43.788 35.486,44.919 "/>
<polygon fill="#FFFFFF" points="127.582,80.9 126.315,80.663 125.402,81.572 125.236,80.294 124.088,79.706 125.252,79.153 
	125.457,77.881 126.344,78.816 127.617,78.618 127,79.75 "/>
<path fill="#DC3546" d="M75.913,93.068"/>
</svg>
