<?xml version="1.0" encoding="utf-8"?>
<!-- Generator: Adobe Illustrator 16.0.0, SVG Export Plug-In . SVG Version: 6.00 Build 0)  -->
<!DOCTYPE svg PUBLIC "-//W3C//DTD SVG 1.1//EN" "http://www.w3.org/Graphics/SVG/1.1/DTD/svg11.dtd">
<svg version="1.1" id="Layer_1" xmlns="http://www.w3.org/2000/svg" xmlns:xlink="http://www.w3.org/1999/xlink" x="0px" y="0px"
	 width="100px" height="150px" viewBox="0 0 100 150" enable-background="new 0 0 100 150" xml:space="preserve">
<g id="XMLID_1_">
	<g>
		<path fill="#FFFFFF" d="M70.385,46.118c3.613,3.57,6.181,10.021,6.201,16.847c-0.063,2.651-0.396,5.324-1.252,7.892
			c-0.73-5.448-3.258-9.437-9.313-11.148C67.672,55.972,69.301,51.379,70.385,46.118z"/>
		<path fill="#FFFFFF" d="M52.87,2.715c17.767,17.766,14.259,40.939,6.974,56.326L40.114,59.02
			c-7.286-14.718-10.773-38.622,7.203-56.598C48.131,1.608,49.008,0.815,49.906,0c1.002,0.835,1.941,1.691,2.839,2.589L52.87,2.715z
			 M49.989,35.45c-1.65-0.021-2.964,1.294-2.943,2.944c0,1.628,1.294,2.923,2.943,2.943c1.649-0.021,2.902-1.315,2.942-2.943
			C52.954,36.744,51.639,35.429,49.989,35.45z M55.877,23.592c0.021-3.236-2.631-5.887-5.888-5.929
			c-3.257,0.042-5.887,2.672-5.887,5.971c0,3.215,2.63,5.887,5.887,5.887S55.897,26.869,55.877,23.592z"/>
		<path fill="#FFFFFF" d="M23.414,62.987c0.042-6.848,2.526-13.257,6.117-16.848c0.981,4.865,2.568,9.458,4.405,13.591
			c-6.013,1.67-8.581,5.699-9.332,11.127C23.81,68.268,23.414,65.617,23.414,62.987z"/>
	</g>
</g>
</svg>
