<?xml version="1.0" encoding="utf-8"?>
<!-- Generator: Adobe Illustrator 16.0.0, SVG Export Plug-In . SVG Version: 6.00 Build 0)  -->
<!DOCTYPE svg PUBLIC "-//W3C//DTD SVG 1.1//EN" "http://www.w3.org/Graphics/SVG/1.1/DTD/svg11.dtd">
<svg version="1.1" id="Layer_1" xmlns="http://www.w3.org/2000/svg" xmlns:xlink="http://www.w3.org/1999/xlink" x="0px" y="0px"
	 width="24px" height="24px" viewBox="0 0 24 24" enable-background="new 0 0 24 24" xml:space="preserve">
<path fill="#D61818" d="M3,6v18h18V6H3z M8,20c0,0.552-0.448,1-1,1s-1-0.448-1-1V10c0-0.552,0.448-1,1-1s1,0.448,1,1V20z M13,20
	c0,0.552-0.448,1-1,1s-1-0.448-1-1V10c0-0.552,0.448-1,1-1s1,0.448,1,1V20z M18,20c0,0.552-0.448,1-1,1s-1-0.448-1-1V10
	c0-0.552,0.448-1,1-1s1,0.448,1,1V20z M22,2v2H2V2h5.711c0.9,0,1.631-1.099,1.631-2h5.315c0,0.901,0.729,2,1.631,2H22z"/>
</svg>
