<?xml version="1.0" encoding="utf-8"?>
<!-- Generator: Adobe Illustrator 16.0.0, SVG Export Plug-In . SVG Version: 6.00 Build 0)  -->
<!DOCTYPE svg PUBLIC "-//W3C//DTD SVG 1.1//EN" "http://www.w3.org/Graphics/SVG/1.1/DTD/svg11.dtd">
<svg version="1.1" id="Layer_1" xmlns="http://www.w3.org/2000/svg" xmlns:xlink="http://www.w3.org/1999/xlink" x="0px" y="0px"
	 width="150px" height="150px" viewBox="0 0 150 150" enable-background="new 0 0 150 150" xml:space="preserve">
<ellipse transform="matrix(0.9743 0.2252 -0.2252 0.9743 29.1049 -4.7509)" opacity="0.3" fill="#FFFFFF" cx="35.38" cy="125.218" rx="12" ry="7.334">
	<animate
		attributeName="opacity"
		values=".3; .5; .7; .5; .3"
		dur="1s"
		begin="0s"
		repeatCount="indefinite"
		/>

</ellipse>
<ellipse transform="matrix(0.9872 -0.1593 0.1593 0.9872 -19.4967 12.3865)" opacity="0.3" fill="#FFFFFF" cx="67.488" cy="127.766" rx="9.061" ry="5.537">
	<animate
		attributeName="opacity"
		values=".3; .5; .7; .5; .3"
		dur="1s"
		begin="0.2s"
		repeatCount="indefinite"
		/>
</ellipse>
<ellipse opacity="0.3" fill="#FFFFFF" cx="48.641" cy="125.374" rx="9.061" ry="5.538"/>
<ellipse transform="matrix(0.9974 0.0722 -0.0722 0.9974 9.3713 -5.8226)" opacity="0.3" fill="#FFFFFF" cx="85.222" cy="126.708" rx="9.062" ry="5.537">
<animate
		attributeName="opacity"
		values=".3; .5; .7; .5; .3"
		dur="1s"
		begin="0.4s"
		repeatCount="indefinite"
		/>
</ellipse>
<ellipse transform="matrix(0.9905 0.1375 -0.1375 0.9905 18.9861 -4.3506)" opacity="0.3" fill="#FFFFFF" cx="40.976" cy="135.217" rx="12" ry="7.333">
<animate
		attributeName="opacity"
		values=".3; .5; .7; .5; .3"
		dur="1s"
		begin="0.2s"
		repeatCount="indefinite"
		/>
</ellipse>
<ellipse transform="matrix(0.9888 0.1495 -0.1495 0.9888 20.237 -7.2035)" opacity="0.3" fill="#FFFFFF" cx="58.046" cy="131.043" rx="12" ry="7.334">
<animate
		attributeName="opacity"
		values=".3; .5; .7; .5; .3"
		dur="1s"
		begin="0.3s"
		repeatCount="indefinite"
		/>
</ellipse>
<ellipse opacity="0.3" fill="#FFFFFF" cx="26.965" cy="140.717" rx="17.417" ry="5.414">
<animate
		attributeName="opacity"
		values=".3; .5; .7; .5; .3"
		dur="1s"
		begin="0.1s"
		repeatCount="indefinite"
		/>
</ellipse>
<ellipse opacity="0.3" fill="#FFFFFF" cx="52.905" cy="142.668" rx="14.583" ry="6.123">
<animate
		attributeName="opacity"
		values=".3; .5; .7; .5; .3"
		dur="1s"
		begin="0.5s"
		repeatCount="indefinite"
		/>
</ellipse>
<ellipse opacity="0.3" fill="#FFFFFF" cx="15.66" cy="132.382" rx="13.917" ry="8.335">
<animate
		attributeName="opacity"
		values=".3; .5; .7; .5; .3"
		dur="1s"
		begin="0.3s"
		repeatCount="indefinite"
		/>
</ellipse>
<ellipse opacity="0.3" fill="#FFFFFF" cx="75.221" cy="144.131" rx="15.339" ry="5.686">
<animate
		attributeName="opacity"
		values=".3; .5; .7; .5; .3"
		dur="1s"
		begin="0.4s"
		repeatCount="indefinite"
		/>
</ellipse>
<ellipse transform="matrix(0.9935 -0.1137 0.1137 0.9935 -13.8416 11.8847)" opacity="0.3" fill="#FFFFFF" cx="97.278" cy="127.298" rx="11.996" ry="5.916">
<animate
		attributeName="opacity"
		values=".3; .5; .7; .5; .3"
		dur="1s"
		begin="0.2s"
		repeatCount="indefinite"
		/>
</ellipse>
<ellipse opacity="0.3" fill="#FFFFFF" cx="75.221" cy="135.301" rx="15.289" ry="5.586">
<animate
		attributeName="opacity"
		values=".3; .5; .7; .5; .3"
		dur="1s"
		begin="0.1s"
		repeatCount="indefinite"
		/>
</ellipse>
<ellipse opacity="0.3" fill="#FFFFFF" cx="98.692" cy="138.445" rx="15.75" ry="6.373">
<animate
		attributeName="opacity"
		values=".3; .5; .7; .5; .3"
		dur="1s"
		begin="0.3s"
		repeatCount="indefinite"
		/>
</ellipse>
<ellipse transform="matrix(0.9886 -0.1508 0.1508 0.9886 -18.6255 18.4102)" opacity="0.3" fill="#FFFFFF" cx="112.107" cy="132.045" rx="12" ry="7.333">
<animate
		attributeName="opacity"
		values=".3; .5; .7; .5; .3"
		dur="1s"
		begin="0.1s"
		repeatCount="indefinite"
		/>
</ellipse>
<ellipse transform="matrix(0.9814 -0.1919 0.1919 0.9814 -21.4714 25.7098)" opacity="0.3" fill="#FFFFFF" cx="122.002" cy="123.71" rx="12" ry="7.333">
<animate
		attributeName="opacity"
		values=".3; .5; .7; .5; .3"
		dur="1s"
		begin="0.25s"
		repeatCount="indefinite"
		/>
</ellipse>
<ellipse opacity="0.3" fill="#FFFFFF" cx="122.002" cy="142.666" rx="12" ry="7.334">
<animate
		attributeName="opacity"
		values=".3; .5; .7; .5; .3"
		dur="1s"
		begin="0.3s"
		repeatCount="indefinite"
		/>
</ellipse>
<ellipse opacity="0.3" fill="#FFFFFF" cx="134.291" cy="132.707" rx="12" ry="7.334">
<animate
		attributeName="opacity"
		values=".3; .5; .7; .5; .3"
		dur="1s"
		begin="0.4s"
		repeatCount="indefinite"
		/>
</ellipse>
<ellipse transform="matrix(0.9684 -0.2493 0.2493 0.9684 -25.4626 37.6617)" opacity="0.3" fill="#FFFFFF" cx="135.981" cy="119.374" rx="14.009" ry="7.335">
<animate
		attributeName="opacity"
		values=".3; .5; .7; .5; .3"
		dur="1s"
		begin="0.15s"
		repeatCount="indefinite"
		/>
</ellipse>
<ellipse transform="matrix(0.9172 0.3984 -0.3984 0.9172 48.2137 3.7309)" opacity="0.3" fill="#FFFFFF" cx="15.13" cy="117.878" rx="14.127" ry="8.404">
<animate
		attributeName="opacity"
		values=".3; .5; .7; .5; .3"
		dur="1s"
		begin="0.33s"
		repeatCount="indefinite"
		/>
</ellipse>
</svg>
