<?xml version="1.0" encoding="utf-8"?>
<!-- Generator: Adobe Illustrator 16.0.0, SVG Export Plug-In . SVG Version: 6.00 Build 0)  -->
<!DOCTYPE svg PUBLIC "-//W3C//DTD SVG 1.1//EN" "http://www.w3.org/Graphics/SVG/1.1/DTD/svg11.dtd">
<svg version="1.1" id="Layer_1" xmlns="http://www.w3.org/2000/svg" xmlns:xlink="http://www.w3.org/1999/xlink" x="0px" y="0px"
	 width="24px" height="24px" viewBox="0 0 24 24" enable-background="new 0 0 24 24" xml:space="preserve">
<path fill="#DC3545" d="M16,9V5l8,7l-8,7v-4H8V9H16z M14,19v-0.083C12.822,19.602,11.458,20,10,20c-4.411,0-8-3.589-8-8s3.589-8,8-8
	c1.458,0,2.822,0.398,4,1.083V2.838C12.773,2.302,11.423,2,10,2C4.478,2,0,6.477,0,12c0,5.523,4.478,10,10,10
	c1.423,0,2.773-0.302,4-0.838V19z"/>
</svg>
