<?xml version="1.0" encoding="utf-8"?>
<!-- Generator: Adobe Illustrator 16.0.0, SVG Export Plug-In . SVG Version: 6.00 Build 0)  -->
<!DOCTYPE svg PUBLIC "-//W3C//DTD SVG 1.1//EN" "http://www.w3.org/Graphics/SVG/1.1/DTD/svg11.dtd">
<svg version="1.1" id="Layer_1" xmlns="http://www.w3.org/2000/svg" xmlns:xlink="http://www.w3.org/1999/xlink" x="0px" y="0px"
	 width="100px" height="150px" viewBox="0 0 100 150" enable-background="new 0 0 100 150" xml:space="preserve">
<g id="XMLID_1_">
	<g>
		<path fill="#FFFFFF" d="M70.631,46.118c3.613,3.57,6.181,10.021,6.201,16.847c-0.063,2.651-0.396,5.324-1.252,7.892
			c-0.73-5.448-3.258-9.437-9.313-11.148C67.918,55.972,69.547,51.379,70.631,46.118z"/>
		<path fill="#FFFFFF" d="M53.116,2.715c17.767,17.766,14.259,40.939,6.974,56.326L40.36,59.02
			c-7.286-14.718-10.773-38.622,7.203-56.598C48.377,1.608,49.254,0.815,50.152,0c1.002,0.835,1.941,1.691,2.839,2.589L53.116,2.715
			z M50.235,35.45c-1.65-0.021-2.964,1.294-2.943,2.944c0,1.628,1.294,2.923,2.943,2.943c1.649-0.021,2.902-1.315,2.943-2.943
			C53.201,36.744,51.885,35.429,50.235,35.45z M56.123,23.592c0.021-3.236-2.631-5.887-5.888-5.929
			c-3.257,0.042-5.887,2.672-5.887,5.971c0,3.215,2.63,5.887,5.887,5.887S56.144,26.869,56.123,23.592z		">
<animateTransform  type="translate" fill="remove" restart="always" calcMode="linear" additive="replace" accumulate="none" repeatCount="indefinite" begin=".5s" dur=".5s" values="0 0; 0 1.5; 0 0" attributeName="transform">
				</animateTransform>
		</path>
		<path fill="#FFFFFF" d="M23.66,62.987c0.042-6.848,2.526-13.257,6.117-16.848c0.981,4.865,2.568,9.458,4.405,13.591
			c-6.013,1.67-8.581,5.699-9.332,11.127C24.056,68.268,23.66,65.617,23.66,62.987z"/>
		<path fill="#D61818" d="M58.356,64.949c4.864,11.086,0.856,25.074-8.163,35.053c-8.497-9.375-12.547-23.654-7.328-35.053
			l3.361,0.021c-3.278,14.802,1.461,20.877,4.008,23.466c2.589-2.715,7.704-9.207,4.822-23.487H58.356z		">
<animateTransform  type="translate" fill="remove" restart="always" calcMode="linear" additive="replace" accumulate="none" repeatCount="indefinite" begin=".5s" dur=".2s" values="0 -5; 0 1; 0 -5" attributeName="transform">
				</animateTransform>
		</path>
	</g>
</g>
</svg>
