<?xml version="1.0" encoding="utf-8"?>
<!-- Generator: Adobe Illustrator 16.0.0, SVG Export Plug-In . SVG Version: 6.00 Build 0)  -->
<!DOCTYPE svg PUBLIC "-//W3C//DTD SVG 1.1//EN" "http://www.w3.org/Graphics/SVG/1.1/DTD/svg11.dtd">
<svg version="1.1" id="Layer_1" xmlns="http://www.w3.org/2000/svg" xmlns:xlink="http://www.w3.org/1999/xlink" x="0px" y="0px"
	 width="24px" height="24px" viewBox="0 0 24 24" enable-background="new 0 0 24 24" xml:space="preserve">
<g id="XMLID_1_">
	<g>
		<path fill="#FFFFFF" d="M13.5,18.2c1.29-0.51,2.78-1.22,4.3-2.21c0.01,1.71-0.92,3.87-2.56,5.51c-0.63,0.62-1.36,1.18-2.181,1.6
			C14.19,21.62,14.54,20.05,13.5,18.2z"/>
		<path fill="#FFFFFF" d="M15.47,8.54c-0.39-0.39-1.02-0.39-1.41,0c-0.39,0.39-0.39,1.02,0,1.41c0.391,0.39,1.021,0.39,1.41,0
			C15.87,9.56,15.87,8.93,15.47,8.54z M19.72,7.12c0.78-0.78,0.78-2.04,0-2.82c-0.779-0.78-2.05-0.78-2.83,0
			c-0.779,0.78-0.779,2.04,0,2.82C17.67,7.9,18.94,7.9,19.72,7.12z M24,1.39c0,8.51-6.39,13.23-11.82,15.169L7.46,11.83
			C9.24,6.56,14.13,0,22.73,0c0.399,0,0.81,0.01,1.22,0.04C23.98,0.48,24,0.91,24,1.33V1.39z"/>
		<path fill="#FFFFFF" d="M8.01,6.21c-0.93,1.4-1.65,2.87-2.2,4.3c-1.84-1.03-3.42-0.68-4.9,0.44c0.43-0.82,0.98-1.55,1.6-2.18
			C4.15,7.13,6.3,6.21,8.01,6.21z"/>
		<path fill="#D61818" d="M2.78,21.23c1.27-0.021,4.05-0.351,6.78-4.471l0.79,0.8C8.86,21.37,4.55,23.77,0,24
			c0.22-4.29,2.66-8.68,6.64-10.15l0.8,0.801C3.11,17.41,2.79,20,2.78,21.23z"/>
	</g>
	<g>
	</g>
</g>
</svg>
