<?xml version="1.0" encoding="utf-8"?>
<!-- Generator: Adobe Illustrator 16.0.0, SVG Export Plug-In . SVG Version: 6.00 Build 0)  -->
<!DOCTYPE svg PUBLIC "-//W3C//DTD SVG 1.1//EN" "http://www.w3.org/Graphics/SVG/1.1/DTD/svg11.dtd">
<svg version="1.1" id="Layer_1" xmlns="http://www.w3.org/2000/svg" xmlns:xlink="http://www.w3.org/1999/xlink" x="0px" y="0px"
	 width="100px" height="100.501px" viewBox="-37.985 -38.23 100 100.501" enable-background="new -37.985 -38.23 100 100.501"
	 xml:space="preserve">
<g id="XMLID_1_">
	<g>
		<path fill="#FFFFFF" d="M32.4,8.137c3.612,3.57,6.18,10.021,6.201,16.847c-0.063,2.651-0.396,5.324-1.253,7.892
			c-0.73-5.448-3.257-9.437-9.312-11.148C29.687,17.991,31.315,13.398,32.4,8.137z"/>
		<path fill="#FFFFFF" d="M14.885-35.266C32.651-17.5,29.144,5.673,21.858,21.06L2.129,21.039
			C-5.157,6.321-8.644-17.583,9.332-35.559c0.814-0.814,1.691-1.607,2.589-2.422c1.002,0.835,1.942,1.691,2.839,2.589L14.885-35.266
			z M12.004-2.531C10.354-2.552,9.04-1.237,9.061,0.413c0,1.628,1.294,2.923,2.943,2.943c1.649-0.021,2.902-1.315,2.943-2.943
			C14.969-1.237,13.653-2.552,12.004-2.531z M17.892-14.389c0.021-3.236-2.631-5.887-5.888-5.929
			c-3.257,0.042-5.887,2.672-5.887,5.971c0,3.215,2.63,5.887,5.887,5.887S17.912-11.112,17.892-14.389z">
			<animateTransform
				attributeName="transform"
				type="translate"
				values="0 0; 0 1.5; 0 0"
				dur=".5s"
				begin=".5s"
				repeatCount="indefinite"
			/>
		</path>
		<path fill="#FFFFFF" d="M-14.572,25.006c0.042-6.848,2.526-13.257,6.117-16.848c0.981,4.865,2.568,9.458,4.405,13.591
			c-6.013,1.67-8.581,5.699-9.332,11.127C-14.176,30.287-14.572,27.636-14.572,25.006z"/>
		<path fill="#D61818" d="M20.125,26.968c4.864,11.086,0.856,25.073-8.163,35.053C3.465,52.646-0.585,38.367,4.634,26.968
			l3.361,0.021c-3.278,14.802,1.461,20.877,4.008,23.466c2.589-2.715,7.704-9.207,4.822-23.487H20.125z">
			<animateTransform
				attributeName="transform"
				type="translate"
				values="0 -5; 0 1; 0 -5"
				dur=".2s"
				begin=".5s"
				repeatCount="indefinite"
			/>
			
		</path>
	</g>
	<g>
	</g>
</g>
<path fill="#FFFFFF" d="M-23.938,26.785c0,0.101-0.224,0.183-0.5,0.183l0,0c-0.276,0-0.5-0.082-0.5-0.183V7.151
	c0-0.101,0.224-0.183,0.5-0.183l0,0c0.276,0,0.5,0.082,0.5,0.183V26.785z">
	<animateTransform
				attributeName="transform"
				type="translate"
				from="0 -30"
				to="0 100"
				dur="1s"
				begin=".5s"
				repeatCount="indefinite"
			/>
			
		</path>
<path fill="#FFFFFF" d="M51.5-6.246c0,0.101-0.225,0.183-0.5,0.183l0,0c-0.275,0-0.5-0.082-0.5-0.183v-19.634
	c0-0.101,0.225-0.183,0.5-0.183l0,0c0.275,0,0.5,0.082,0.5,0.183V-6.246z">
	<animateTransform
				attributeName="transform"
				type="translate"
				from="0 -30"
				to="0 100"
				dur="1s"
				begin=".3s"
				repeatCount="indefinite"
			/>
		</path>
<path fill="#FFFFFF" d="M41.375,59.604c0,0.149-0.225,0.271-0.5,0.271l0,0c-0.275,0-0.5-0.121-0.5-0.271V30.583
	c0-0.149,0.225-0.271,0.5-0.271l0,0c0.275,0,0.5,0.121,0.5,0.271V59.604z">
	<animateTransform
				attributeName="transform"
				type="translate"
				from="0 -30"
				to="0 100"
				dur="2s"
				begin=".7s"
				repeatCount="indefinite"
			/>
		</path>
<path fill="#FFFFFF" d="M-10.25,4.604c0,0.149-0.225,0.271-0.5,0.271l0,0c-0.275,0-0.5-0.121-0.5-0.271v-29.021
	c0-0.149,0.225-0.271,0.5-0.271l0,0c0.275,0,0.5,0.121,0.5,0.271V4.604z">
	<animateTransform
				attributeName="transform"
				type="translate"
				from="0 -30"
				to="0 100"
				dur="2s"
				begin=".6s"
				repeatCount="indefinite"
			/>
		</path>
</svg>
